G04 4-channel attenuator front silkscreen*
%FSLAX46Y46*%
%MOMM*%
%IPPOS*%
%LPD*%
%ADD10C,0.200000*%
%ADD11C,0.450000*%
D10*
X0002600000Y0036600000D02*
X0007400000Y0036600000D01*
D10*
X0007400000Y0036600000D02*
X0007400000Y0041400000D01*
D10*
X0007400000Y0041400000D02*
X0002600000Y0041400000D01*
D10*
X0002600000Y0041400000D02*
X0002600000Y0036600000D01*
D10*
X0012600000Y0036600000D02*
X0017400000Y0036600000D01*
D10*
X0017400000Y0036600000D02*
X0017400000Y0041400000D01*
D10*
X0017400000Y0041400000D02*
X0012600000Y0041400000D01*
D10*
X0012600000Y0041400000D02*
X0012600000Y0036600000D01*
D11*
X0002500000Y0031500000D03*
D11*
X0003150000Y0031500000D03*
D11*
X0003800000Y0031500000D03*
D11*
X0003150000Y0032150000D03*
D11*
X0003150000Y0032800000D03*
D11*
X0003150000Y0033450000D03*
D11*
X0002500000Y0034100000D03*
D11*
X0003150000Y0034100000D03*
D11*
X0003800000Y0034100000D03*
D11*
X0005100000Y0031500000D03*
D11*
X0006400000Y0031500000D03*
D11*
X0005100000Y0032150000D03*
D11*
X0005750000Y0032150000D03*
D11*
X0006400000Y0032150000D03*
D11*
X0005100000Y0032800000D03*
D11*
X0005750000Y0032800000D03*
D11*
X0006400000Y0032800000D03*
D11*
X0005100000Y0033450000D03*
D11*
X0005750000Y0033450000D03*
D11*
X0006400000Y0033450000D03*
D11*
X0005100000Y0034100000D03*
D11*
X0006400000Y0034100000D03*
D11*
X0014000000Y0031500000D03*
D11*
X0014650000Y0031500000D03*
D11*
X0015300000Y0031500000D03*
D11*
X0014000000Y0032150000D03*
D11*
X0014000000Y0032800000D03*
D11*
X0015300000Y0032800000D03*
D11*
X0014000000Y0033450000D03*
D11*
X0015300000Y0033450000D03*
D11*
X0014000000Y0034100000D03*
D11*
X0014650000Y0034100000D03*
D11*
X0015300000Y0034100000D03*
D10*
X0065600000Y0005600000D02*
X0070400000Y0005600000D01*
D10*
X0070400000Y0005600000D02*
X0070400000Y0010400000D01*
D10*
X0070400000Y0010400000D02*
X0065600000Y0010400000D01*
D10*
X0065600000Y0010400000D02*
X0065600000Y0005600000D01*
D10*
X0073600000Y0005600000D02*
X0078400000Y0005600000D01*
D10*
X0078400000Y0005600000D02*
X0078400000Y0010400000D01*
D10*
X0078400000Y0010400000D02*
X0073600000Y0010400000D01*
D10*
X0073600000Y0010400000D02*
X0073600000Y0005600000D01*
D10*
X0034500000Y0006900000D02*
X0037500000Y0006900000D01*
D10*
X0037500000Y0006900000D02*
X0037500000Y0009100000D01*
D10*
X0037500000Y0009100000D02*
X0034500000Y0009100000D01*
D10*
X0034500000Y0009100000D02*
X0034500000Y0006900000D01*
D10*
X0051900000Y0007500000D02*
X0054100000Y0007500000D01*
D10*
X0054100000Y0007500000D02*
X0054100000Y0010500000D01*
D10*
X0054100000Y0010500000D02*
X0051900000Y0010500000D01*
D10*
X0051900000Y0010500000D02*
X0051900000Y0007500000D01*
D11*
X0058000000Y0002500000D03*
D11*
X0058550000Y0002500000D03*
D11*
X0059100000Y0002500000D03*
D11*
X0058000000Y0003050000D03*
D11*
X0059100000Y0003050000D03*
D11*
X0058000000Y0003600000D03*
D11*
X0059100000Y0003600000D03*
D11*
X0058000000Y0004150000D03*
D11*
X0059100000Y0004150000D03*
D11*
X0058000000Y0004700000D03*
D11*
X0058550000Y0004700000D03*
D11*
X0059100000Y0004700000D03*
D11*
X0060200000Y0002500000D03*
D11*
X0061300000Y0002500000D03*
D11*
X0060200000Y0003050000D03*
D11*
X0061300000Y0003050000D03*
D11*
X0060200000Y0003600000D03*
D11*
X0061300000Y0003600000D03*
D11*
X0060200000Y0004150000D03*
D11*
X0061300000Y0004150000D03*
D11*
X0060200000Y0004700000D03*
D11*
X0060750000Y0004700000D03*
D11*
X0061300000Y0004700000D03*
D11*
X0062400000Y0002500000D03*
D11*
X0062950000Y0002500000D03*
D11*
X0063500000Y0002500000D03*
D11*
X0062950000Y0003050000D03*
D11*
X0062950000Y0003600000D03*
D11*
X0062950000Y0004150000D03*
D11*
X0062950000Y0004700000D03*
D11*
X0065150000Y0002500000D03*
D11*
X0064600000Y0003050000D03*
D11*
X0065150000Y0003050000D03*
D11*
X0065150000Y0003600000D03*
D11*
X0065150000Y0004150000D03*
D11*
X0064600000Y0004700000D03*
D11*
X0065150000Y0004700000D03*
D11*
X0065700000Y0004700000D03*
D11*
X0074500000Y0002500000D03*
D11*
X0075050000Y0002500000D03*
D11*
X0075600000Y0002500000D03*
D11*
X0074500000Y0003050000D03*
D11*
X0074500000Y0003600000D03*
D11*
X0075600000Y0003600000D03*
D11*
X0074500000Y0004150000D03*
D11*
X0075600000Y0004150000D03*
D11*
X0074500000Y0004700000D03*
D11*
X0075050000Y0004700000D03*
D11*
X0075600000Y0004700000D03*
D11*
X0034000000Y0003500000D03*
D11*
X0034500000Y0003500000D03*
D11*
X0034000000Y0004000000D03*
D11*
X0035000000Y0004000000D03*
D11*
X0034000000Y0004500000D03*
D11*
X0034500000Y0004500000D03*
D11*
X0034000000Y0005000000D03*
D11*
X0035000000Y0005000000D03*
D11*
X0034000000Y0005500000D03*
D11*
X0035000000Y0005500000D03*
D11*
X0036500000Y0003500000D03*
D11*
X0036000000Y0004000000D03*
D11*
X0036500000Y0004000000D03*
D11*
X0036500000Y0004500000D03*
D11*
X0036500000Y0005000000D03*
D11*
X0036000000Y0005500000D03*
D11*
X0036500000Y0005500000D03*
D11*
X0037000000Y0005500000D03*
D11*
X0055500000Y0008200000D03*
D11*
X0056000000Y0008200000D03*
D11*
X0055500000Y0008700000D03*
D11*
X0056500000Y0008700000D03*
D11*
X0055500000Y0009200000D03*
D11*
X0056000000Y0009200000D03*
D11*
X0055500000Y0009700000D03*
D11*
X0056500000Y0009700000D03*
D11*
X0055500000Y0010200000D03*
D11*
X0056500000Y0010200000D03*
D11*
X0057500000Y0008200000D03*
D11*
X0058000000Y0008200000D03*
D11*
X0058500000Y0008200000D03*
D11*
X0057500000Y0008700000D03*
D11*
X0057500000Y0009200000D03*
D11*
X0058000000Y0009200000D03*
D11*
X0058500000Y0009200000D03*
D11*
X0058500000Y0009700000D03*
D11*
X0057500000Y0010200000D03*
D11*
X0058000000Y0010200000D03*
D11*
X0058500000Y0010200000D03*
D10*
X0065600000Y0022600000D02*
X0070400000Y0022600000D01*
D10*
X0070400000Y0022600000D02*
X0070400000Y0027400000D01*
D10*
X0070400000Y0027400000D02*
X0065600000Y0027400000D01*
D10*
X0065600000Y0027400000D02*
X0065600000Y0022600000D01*
D10*
X0073600000Y0022600000D02*
X0078400000Y0022600000D01*
D10*
X0078400000Y0022600000D02*
X0078400000Y0027400000D01*
D10*
X0078400000Y0027400000D02*
X0073600000Y0027400000D01*
D10*
X0073600000Y0027400000D02*
X0073600000Y0022600000D01*
D10*
X0034500000Y0023900000D02*
X0037500000Y0023900000D01*
D10*
X0037500000Y0023900000D02*
X0037500000Y0026100000D01*
D10*
X0037500000Y0026100000D02*
X0034500000Y0026100000D01*
D10*
X0034500000Y0026100000D02*
X0034500000Y0023900000D01*
D10*
X0051900000Y0024500000D02*
X0054100000Y0024500000D01*
D10*
X0054100000Y0024500000D02*
X0054100000Y0027500000D01*
D10*
X0054100000Y0027500000D02*
X0051900000Y0027500000D01*
D10*
X0051900000Y0027500000D02*
X0051900000Y0024500000D01*
D11*
X0058000000Y0019500000D03*
D11*
X0058550000Y0019500000D03*
D11*
X0059100000Y0019500000D03*
D11*
X0058000000Y0020050000D03*
D11*
X0059100000Y0020050000D03*
D11*
X0058000000Y0020600000D03*
D11*
X0059100000Y0020600000D03*
D11*
X0058000000Y0021150000D03*
D11*
X0059100000Y0021150000D03*
D11*
X0058000000Y0021700000D03*
D11*
X0058550000Y0021700000D03*
D11*
X0059100000Y0021700000D03*
D11*
X0060200000Y0019500000D03*
D11*
X0061300000Y0019500000D03*
D11*
X0060200000Y0020050000D03*
D11*
X0061300000Y0020050000D03*
D11*
X0060200000Y0020600000D03*
D11*
X0061300000Y0020600000D03*
D11*
X0060200000Y0021150000D03*
D11*
X0061300000Y0021150000D03*
D11*
X0060200000Y0021700000D03*
D11*
X0060750000Y0021700000D03*
D11*
X0061300000Y0021700000D03*
D11*
X0062400000Y0019500000D03*
D11*
X0062950000Y0019500000D03*
D11*
X0063500000Y0019500000D03*
D11*
X0062950000Y0020050000D03*
D11*
X0062950000Y0020600000D03*
D11*
X0062950000Y0021150000D03*
D11*
X0062950000Y0021700000D03*
D11*
X0064600000Y0019500000D03*
D11*
X0065150000Y0019500000D03*
D11*
X0065700000Y0019500000D03*
D11*
X0065700000Y0020050000D03*
D11*
X0064600000Y0020600000D03*
D11*
X0065150000Y0020600000D03*
D11*
X0065700000Y0020600000D03*
D11*
X0064600000Y0021150000D03*
D11*
X0064600000Y0021700000D03*
D11*
X0065150000Y0021700000D03*
D11*
X0065700000Y0021700000D03*
D11*
X0074500000Y0019500000D03*
D11*
X0075050000Y0019500000D03*
D11*
X0075600000Y0019500000D03*
D11*
X0074500000Y0020050000D03*
D11*
X0074500000Y0020600000D03*
D11*
X0075600000Y0020600000D03*
D11*
X0074500000Y0021150000D03*
D11*
X0075600000Y0021150000D03*
D11*
X0074500000Y0021700000D03*
D11*
X0075050000Y0021700000D03*
D11*
X0075600000Y0021700000D03*
D11*
X0034000000Y0020500000D03*
D11*
X0034500000Y0020500000D03*
D11*
X0034000000Y0021000000D03*
D11*
X0035000000Y0021000000D03*
D11*
X0034000000Y0021500000D03*
D11*
X0034500000Y0021500000D03*
D11*
X0034000000Y0022000000D03*
D11*
X0035000000Y0022000000D03*
D11*
X0034000000Y0022500000D03*
D11*
X0035000000Y0022500000D03*
D11*
X0036000000Y0020500000D03*
D11*
X0036500000Y0020500000D03*
D11*
X0037000000Y0020500000D03*
D11*
X0037000000Y0021000000D03*
D11*
X0036000000Y0021500000D03*
D11*
X0036500000Y0021500000D03*
D11*
X0037000000Y0021500000D03*
D11*
X0036000000Y0022000000D03*
D11*
X0036000000Y0022500000D03*
D11*
X0036500000Y0022500000D03*
D11*
X0037000000Y0022500000D03*
D11*
X0055500000Y0025200000D03*
D11*
X0056000000Y0025200000D03*
D11*
X0055500000Y0025700000D03*
D11*
X0056500000Y0025700000D03*
D11*
X0055500000Y0026200000D03*
D11*
X0056000000Y0026200000D03*
D11*
X0055500000Y0026700000D03*
D11*
X0056500000Y0026700000D03*
D11*
X0055500000Y0027200000D03*
D11*
X0056500000Y0027200000D03*
D11*
X0057500000Y0025200000D03*
D11*
X0058000000Y0025200000D03*
D11*
X0058500000Y0025200000D03*
D11*
X0057500000Y0025700000D03*
D11*
X0057500000Y0026200000D03*
D11*
X0058000000Y0026200000D03*
D11*
X0058500000Y0026200000D03*
D11*
X0057500000Y0026700000D03*
D11*
X0058500000Y0026700000D03*
D11*
X0057500000Y0027200000D03*
D11*
X0058000000Y0027200000D03*
D11*
X0058500000Y0027200000D03*
D10*
X0065600000Y0039600000D02*
X0070400000Y0039600000D01*
D10*
X0070400000Y0039600000D02*
X0070400000Y0044400000D01*
D10*
X0070400000Y0044400000D02*
X0065600000Y0044400000D01*
D10*
X0065600000Y0044400000D02*
X0065600000Y0039600000D01*
D10*
X0073600000Y0039600000D02*
X0078400000Y0039600000D01*
D10*
X0078400000Y0039600000D02*
X0078400000Y0044400000D01*
D10*
X0078400000Y0044400000D02*
X0073600000Y0044400000D01*
D10*
X0073600000Y0044400000D02*
X0073600000Y0039600000D01*
D10*
X0034500000Y0040900000D02*
X0037500000Y0040900000D01*
D10*
X0037500000Y0040900000D02*
X0037500000Y0043100000D01*
D10*
X0037500000Y0043100000D02*
X0034500000Y0043100000D01*
D10*
X0034500000Y0043100000D02*
X0034500000Y0040900000D01*
D10*
X0051900000Y0041500000D02*
X0054100000Y0041500000D01*
D10*
X0054100000Y0041500000D02*
X0054100000Y0044500000D01*
D10*
X0054100000Y0044500000D02*
X0051900000Y0044500000D01*
D10*
X0051900000Y0044500000D02*
X0051900000Y0041500000D01*
D11*
X0058000000Y0036500000D03*
D11*
X0058550000Y0036500000D03*
D11*
X0059100000Y0036500000D03*
D11*
X0058000000Y0037050000D03*
D11*
X0059100000Y0037050000D03*
D11*
X0058000000Y0037600000D03*
D11*
X0059100000Y0037600000D03*
D11*
X0058000000Y0038150000D03*
D11*
X0059100000Y0038150000D03*
D11*
X0058000000Y0038700000D03*
D11*
X0058550000Y0038700000D03*
D11*
X0059100000Y0038700000D03*
D11*
X0060200000Y0036500000D03*
D11*
X0061300000Y0036500000D03*
D11*
X0060200000Y0037050000D03*
D11*
X0061300000Y0037050000D03*
D11*
X0060200000Y0037600000D03*
D11*
X0061300000Y0037600000D03*
D11*
X0060200000Y0038150000D03*
D11*
X0061300000Y0038150000D03*
D11*
X0060200000Y0038700000D03*
D11*
X0060750000Y0038700000D03*
D11*
X0061300000Y0038700000D03*
D11*
X0062400000Y0036500000D03*
D11*
X0062950000Y0036500000D03*
D11*
X0063500000Y0036500000D03*
D11*
X0062950000Y0037050000D03*
D11*
X0062950000Y0037600000D03*
D11*
X0062950000Y0038150000D03*
D11*
X0062950000Y0038700000D03*
D11*
X0064600000Y0036500000D03*
D11*
X0065150000Y0036500000D03*
D11*
X0065700000Y0036500000D03*
D11*
X0065700000Y0037050000D03*
D11*
X0064600000Y0037600000D03*
D11*
X0065150000Y0037600000D03*
D11*
X0065700000Y0037600000D03*
D11*
X0065700000Y0038150000D03*
D11*
X0064600000Y0038700000D03*
D11*
X0065150000Y0038700000D03*
D11*
X0065700000Y0038700000D03*
D11*
X0074500000Y0036500000D03*
D11*
X0075050000Y0036500000D03*
D11*
X0075600000Y0036500000D03*
D11*
X0074500000Y0037050000D03*
D11*
X0074500000Y0037600000D03*
D11*
X0075600000Y0037600000D03*
D11*
X0074500000Y0038150000D03*
D11*
X0075600000Y0038150000D03*
D11*
X0074500000Y0038700000D03*
D11*
X0075050000Y0038700000D03*
D11*
X0075600000Y0038700000D03*
D11*
X0034000000Y0037500000D03*
D11*
X0034500000Y0037500000D03*
D11*
X0034000000Y0038000000D03*
D11*
X0035000000Y0038000000D03*
D11*
X0034000000Y0038500000D03*
D11*
X0034500000Y0038500000D03*
D11*
X0034000000Y0039000000D03*
D11*
X0035000000Y0039000000D03*
D11*
X0034000000Y0039500000D03*
D11*
X0035000000Y0039500000D03*
D11*
X0036000000Y0037500000D03*
D11*
X0036500000Y0037500000D03*
D11*
X0037000000Y0037500000D03*
D11*
X0037000000Y0038000000D03*
D11*
X0036000000Y0038500000D03*
D11*
X0036500000Y0038500000D03*
D11*
X0037000000Y0038500000D03*
D11*
X0037000000Y0039000000D03*
D11*
X0036000000Y0039500000D03*
D11*
X0036500000Y0039500000D03*
D11*
X0037000000Y0039500000D03*
D11*
X0055500000Y0042200000D03*
D11*
X0056000000Y0042200000D03*
D11*
X0055500000Y0042700000D03*
D11*
X0056500000Y0042700000D03*
D11*
X0055500000Y0043200000D03*
D11*
X0056000000Y0043200000D03*
D11*
X0055500000Y0043700000D03*
D11*
X0056500000Y0043700000D03*
D11*
X0055500000Y0044200000D03*
D11*
X0056500000Y0044200000D03*
D11*
X0057500000Y0042200000D03*
D11*
X0058000000Y0042200000D03*
D11*
X0058500000Y0042200000D03*
D11*
X0058500000Y0042700000D03*
D11*
X0058000000Y0043200000D03*
D11*
X0058000000Y0043700000D03*
D11*
X0058000000Y0044200000D03*
D10*
X0065600000Y0056600000D02*
X0070400000Y0056600000D01*
D10*
X0070400000Y0056600000D02*
X0070400000Y0061400000D01*
D10*
X0070400000Y0061400000D02*
X0065600000Y0061400000D01*
D10*
X0065600000Y0061400000D02*
X0065600000Y0056600000D01*
D10*
X0073600000Y0056600000D02*
X0078400000Y0056600000D01*
D10*
X0078400000Y0056600000D02*
X0078400000Y0061400000D01*
D10*
X0078400000Y0061400000D02*
X0073600000Y0061400000D01*
D10*
X0073600000Y0061400000D02*
X0073600000Y0056600000D01*
D10*
X0034500000Y0057900000D02*
X0037500000Y0057900000D01*
D10*
X0037500000Y0057900000D02*
X0037500000Y0060100000D01*
D10*
X0037500000Y0060100000D02*
X0034500000Y0060100000D01*
D10*
X0034500000Y0060100000D02*
X0034500000Y0057900000D01*
D10*
X0051900000Y0058500000D02*
X0054100000Y0058500000D01*
D10*
X0054100000Y0058500000D02*
X0054100000Y0061500000D01*
D10*
X0054100000Y0061500000D02*
X0051900000Y0061500000D01*
D10*
X0051900000Y0061500000D02*
X0051900000Y0058500000D01*
D11*
X0058000000Y0053500000D03*
D11*
X0058550000Y0053500000D03*
D11*
X0059100000Y0053500000D03*
D11*
X0058000000Y0054050000D03*
D11*
X0059100000Y0054050000D03*
D11*
X0058000000Y0054600000D03*
D11*
X0059100000Y0054600000D03*
D11*
X0058000000Y0055150000D03*
D11*
X0059100000Y0055150000D03*
D11*
X0058000000Y0055700000D03*
D11*
X0058550000Y0055700000D03*
D11*
X0059100000Y0055700000D03*
D11*
X0060200000Y0053500000D03*
D11*
X0061300000Y0053500000D03*
D11*
X0060200000Y0054050000D03*
D11*
X0061300000Y0054050000D03*
D11*
X0060200000Y0054600000D03*
D11*
X0061300000Y0054600000D03*
D11*
X0060200000Y0055150000D03*
D11*
X0061300000Y0055150000D03*
D11*
X0060200000Y0055700000D03*
D11*
X0060750000Y0055700000D03*
D11*
X0061300000Y0055700000D03*
D11*
X0062400000Y0053500000D03*
D11*
X0062950000Y0053500000D03*
D11*
X0063500000Y0053500000D03*
D11*
X0062950000Y0054050000D03*
D11*
X0062950000Y0054600000D03*
D11*
X0062950000Y0055150000D03*
D11*
X0062950000Y0055700000D03*
D11*
X0064600000Y0053500000D03*
D11*
X0065700000Y0053500000D03*
D11*
X0064600000Y0054050000D03*
D11*
X0065700000Y0054050000D03*
D11*
X0064600000Y0054600000D03*
D11*
X0065150000Y0054600000D03*
D11*
X0065700000Y0054600000D03*
D11*
X0065700000Y0055150000D03*
D11*
X0065700000Y0055700000D03*
D11*
X0074500000Y0053500000D03*
D11*
X0075050000Y0053500000D03*
D11*
X0075600000Y0053500000D03*
D11*
X0074500000Y0054050000D03*
D11*
X0074500000Y0054600000D03*
D11*
X0075600000Y0054600000D03*
D11*
X0074500000Y0055150000D03*
D11*
X0075600000Y0055150000D03*
D11*
X0074500000Y0055700000D03*
D11*
X0075050000Y0055700000D03*
D11*
X0075600000Y0055700000D03*
D11*
X0034000000Y0054500000D03*
D11*
X0034500000Y0054500000D03*
D11*
X0034000000Y0055000000D03*
D11*
X0035000000Y0055000000D03*
D11*
X0034000000Y0055500000D03*
D11*
X0034500000Y0055500000D03*
D11*
X0034000000Y0056000000D03*
D11*
X0035000000Y0056000000D03*
D11*
X0034000000Y0056500000D03*
D11*
X0035000000Y0056500000D03*
D11*
X0036000000Y0054500000D03*
D11*
X0037000000Y0054500000D03*
D11*
X0036000000Y0055000000D03*
D11*
X0037000000Y0055000000D03*
D11*
X0036000000Y0055500000D03*
D11*
X0036500000Y0055500000D03*
D11*
X0037000000Y0055500000D03*
D11*
X0037000000Y0056000000D03*
D11*
X0037000000Y0056500000D03*
D11*
X0055500000Y0059200000D03*
D11*
X0056000000Y0059200000D03*
D11*
X0055500000Y0059700000D03*
D11*
X0056500000Y0059700000D03*
D11*
X0055500000Y0060200000D03*
D11*
X0056000000Y0060200000D03*
D11*
X0055500000Y0060700000D03*
D11*
X0056500000Y0060700000D03*
D11*
X0055500000Y0061200000D03*
D11*
X0056500000Y0061200000D03*
D11*
X0057500000Y0059200000D03*
D11*
X0058000000Y0059200000D03*
D11*
X0058500000Y0059200000D03*
D11*
X0057500000Y0059700000D03*
D11*
X0058500000Y0059700000D03*
D11*
X0057500000Y0060200000D03*
D11*
X0058000000Y0060200000D03*
D11*
X0058500000Y0060200000D03*
D11*
X0057500000Y0060700000D03*
D11*
X0058500000Y0060700000D03*
D11*
X0057500000Y0061200000D03*
D11*
X0058000000Y0061200000D03*
D11*
X0058500000Y0061200000D03*
D11*
X0010000000Y0001500000D03*
D11*
X0011100000Y0001500000D03*
D11*
X0010000000Y0002050000D03*
D11*
X0011100000Y0002050000D03*
D11*
X0010000000Y0002600000D03*
D11*
X0010550000Y0002600000D03*
D11*
X0011100000Y0002600000D03*
D11*
X0011100000Y0003150000D03*
D11*
X0011100000Y0003700000D03*
D11*
X0012200000Y0001500000D03*
D11*
X0012750000Y0001500000D03*
D11*
X0013300000Y0001500000D03*
D11*
X0012200000Y0002050000D03*
D11*
X0012200000Y0002600000D03*
D11*
X0012200000Y0003150000D03*
D11*
X0012200000Y0003700000D03*
D11*
X0012750000Y0003700000D03*
D11*
X0013300000Y0003700000D03*
D11*
X0014400000Y0001500000D03*
D11*
X0015500000Y0001500000D03*
D11*
X0014400000Y0002050000D03*
D11*
X0015500000Y0002050000D03*
D11*
X0014400000Y0002600000D03*
D11*
X0014950000Y0002600000D03*
D11*
X0015500000Y0002600000D03*
D11*
X0014400000Y0003150000D03*
D11*
X0015500000Y0003150000D03*
D11*
X0014400000Y0003700000D03*
D11*
X0015500000Y0003700000D03*
D11*
X0019350000Y0001500000D03*
D11*
X0018800000Y0002050000D03*
D11*
X0019350000Y0002050000D03*
D11*
X0019350000Y0002600000D03*
D11*
X0019350000Y0003150000D03*
D11*
X0018800000Y0003700000D03*
D11*
X0019350000Y0003700000D03*
D11*
X0019900000Y0003700000D03*
D11*
X0021000000Y0001500000D03*
D11*
X0021550000Y0001500000D03*
D11*
X0022100000Y0001500000D03*
D11*
X0021000000Y0002050000D03*
D11*
X0022100000Y0002050000D03*
D11*
X0021000000Y0002600000D03*
D11*
X0022100000Y0002600000D03*
D11*
X0021000000Y0003150000D03*
D11*
X0022100000Y0003150000D03*
D11*
X0021000000Y0003700000D03*
D11*
X0021550000Y0003700000D03*
D11*
X0022100000Y0003700000D03*
D11*
X0023200000Y0001500000D03*
D11*
X0023750000Y0001500000D03*
D11*
X0024300000Y0001500000D03*
D11*
X0023200000Y0002050000D03*
D11*
X0024300000Y0002050000D03*
D11*
X0023200000Y0002600000D03*
D11*
X0024300000Y0002600000D03*
D11*
X0023200000Y0003150000D03*
D11*
X0024300000Y0003150000D03*
D11*
X0023200000Y0003700000D03*
D11*
X0023750000Y0003700000D03*
D11*
X0024300000Y0003700000D03*
D11*
X0025950000Y0001500000D03*
D11*
X0025400000Y0002050000D03*
D11*
X0025950000Y0002050000D03*
D11*
X0025950000Y0002600000D03*
D11*
X0025950000Y0003150000D03*
D11*
X0025400000Y0003700000D03*
D11*
X0025950000Y0003700000D03*
D11*
X0026500000Y0003700000D03*
D11*
X0028150000Y0002050000D03*
D11*
X0028150000Y0003150000D03*
D11*
X0030350000Y0001500000D03*
D11*
X0029800000Y0002050000D03*
D11*
X0030350000Y0002050000D03*
D11*
X0030350000Y0002600000D03*
D11*
X0030350000Y0003150000D03*
D11*
X0029800000Y0003700000D03*
D11*
X0030350000Y0003700000D03*
D11*
X0030900000Y0003700000D03*
D11*
X0034750000Y0001500000D03*
D11*
X0034200000Y0002050000D03*
D11*
X0035300000Y0002050000D03*
D11*
X0034200000Y0002600000D03*
D11*
X0034750000Y0002600000D03*
D11*
X0035300000Y0002600000D03*
D11*
X0034200000Y0003150000D03*
D11*
X0035300000Y0003150000D03*
D11*
X0034200000Y0003700000D03*
D11*
X0035300000Y0003700000D03*
D11*
X0036400000Y0001500000D03*
D11*
X0036950000Y0001500000D03*
D11*
X0037500000Y0001500000D03*
D11*
X0036950000Y0002050000D03*
D11*
X0036950000Y0002600000D03*
D11*
X0036950000Y0003150000D03*
D11*
X0036950000Y0003700000D03*
D11*
X0038600000Y0001500000D03*
D11*
X0039150000Y0001500000D03*
D11*
X0039700000Y0001500000D03*
D11*
X0039150000Y0002050000D03*
D11*
X0039150000Y0002600000D03*
D11*
X0039150000Y0003150000D03*
D11*
X0039150000Y0003700000D03*
D11*
X0040800000Y0001500000D03*
D11*
X0041350000Y0001500000D03*
D11*
X0041900000Y0001500000D03*
D11*
X0040800000Y0002050000D03*
D11*
X0040800000Y0002600000D03*
D11*
X0041350000Y0002600000D03*
D11*
X0040800000Y0003150000D03*
D11*
X0040800000Y0003700000D03*
D11*
X0041350000Y0003700000D03*
D11*
X0041900000Y0003700000D03*
D11*
X0043000000Y0001500000D03*
D11*
X0044100000Y0001500000D03*
D11*
X0043000000Y0002050000D03*
D11*
X0043550000Y0002050000D03*
D11*
X0044100000Y0002050000D03*
D11*
X0043000000Y0002600000D03*
D11*
X0043550000Y0002600000D03*
D11*
X0044100000Y0002600000D03*
D11*
X0043000000Y0003150000D03*
D11*
X0043550000Y0003150000D03*
D11*
X0044100000Y0003150000D03*
D11*
X0043000000Y0003700000D03*
D11*
X0044100000Y0003700000D03*
D11*
X0045200000Y0001500000D03*
D11*
X0046300000Y0001500000D03*
D11*
X0045200000Y0002050000D03*
D11*
X0046300000Y0002050000D03*
D11*
X0045200000Y0002600000D03*
D11*
X0046300000Y0002600000D03*
D11*
X0045200000Y0003150000D03*
D11*
X0046300000Y0003150000D03*
D11*
X0045200000Y0003700000D03*
D11*
X0045750000Y0003700000D03*
D11*
X0046300000Y0003700000D03*
D11*
X0047950000Y0001500000D03*
D11*
X0047400000Y0002050000D03*
D11*
X0048500000Y0002050000D03*
D11*
X0047400000Y0002600000D03*
D11*
X0047950000Y0002600000D03*
D11*
X0048500000Y0002600000D03*
D11*
X0047400000Y0003150000D03*
D11*
X0048500000Y0003150000D03*
D11*
X0047400000Y0003700000D03*
D11*
X0048500000Y0003700000D03*
D11*
X0049600000Y0001500000D03*
D11*
X0050150000Y0001500000D03*
D11*
X0050700000Y0001500000D03*
D11*
X0050150000Y0002050000D03*
D11*
X0050150000Y0002600000D03*
D11*
X0050150000Y0003150000D03*
D11*
X0050150000Y0003700000D03*
D11*
X0051800000Y0001500000D03*
D11*
X0052350000Y0001500000D03*
D11*
X0052900000Y0001500000D03*
D11*
X0051800000Y0002050000D03*
D11*
X0052900000Y0002050000D03*
D11*
X0051800000Y0002600000D03*
D11*
X0052900000Y0002600000D03*
D11*
X0051800000Y0003150000D03*
D11*
X0052900000Y0003150000D03*
D11*
X0051800000Y0003700000D03*
D11*
X0052350000Y0003700000D03*
D11*
X0052900000Y0003700000D03*
D11*
X0054000000Y0001500000D03*
D11*
X0054550000Y0001500000D03*
D11*
X0054000000Y0002050000D03*
D11*
X0055100000Y0002050000D03*
D11*
X0054000000Y0002600000D03*
D11*
X0054550000Y0002600000D03*
D11*
X0054000000Y0003150000D03*
D11*
X0055100000Y0003150000D03*
D11*
X0054000000Y0003700000D03*
D11*
X0055100000Y0003700000D03*
M02*
