G04 4-channel attenuator front copper*
%FSLAX46Y46*%
%MOMM*%
%IPPOS*%
%LPD*%
%ADD10C,0.500000*%
%ADD11R,3.800000X3.800000*%
%ADD12C,3.800000*%
%ADD13C,2.200000*%
D11*
X0005000000Y0039000000D03*
D11*
X0068000000Y0008000000D03*
D11*
X0068000000Y0025000000D03*
D11*
X0068000000Y0042000000D03*
D11*
X0068000000Y0059000000D03*
D12*
X0015000000Y0039000000D03*
D12*
X0076000000Y0008000000D03*
D12*
X0076000000Y0025000000D03*
D12*
X0076000000Y0042000000D03*
D12*
X0076000000Y0059000000D03*
D13*
X0028000000Y0008000000D03*
D13*
X0043000000Y0008000000D03*
D13*
X0028000000Y0025000000D03*
D13*
X0043000000Y0025000000D03*
D13*
X0028000000Y0042000000D03*
D13*
X0043000000Y0042000000D03*
D13*
X0028000000Y0059000000D03*
D13*
X0043000000Y0059000000D03*
D13*
X0053000000Y0008000000D03*
D13*
X0053000000Y0023000000D03*
D13*
X0053000000Y0025000000D03*
D13*
X0053000000Y0040000000D03*
D13*
X0053000000Y0042000000D03*
D13*
X0053000000Y0057000000D03*
D13*
X0053000000Y0059000000D03*
D13*
X0053000000Y0074000000D03*
D10*
X0005000000Y0039000000D02*
X0020000000Y0039000000D01*
D10*
X0020000000Y0008000000D02*
X0020000000Y0059000000D01*
D10*
X0020000000Y0008000000D02*
X0028000000Y0008000000D01*
D10*
X0043000000Y0008000000D02*
X0068000000Y0008000000D01*
D10*
X0020000000Y0025000000D02*
X0028000000Y0025000000D01*
D10*
X0043000000Y0025000000D02*
X0068000000Y0025000000D01*
D10*
X0020000000Y0042000000D02*
X0028000000Y0042000000D01*
D10*
X0043000000Y0042000000D02*
X0068000000Y0042000000D01*
D10*
X0020000000Y0059000000D02*
X0028000000Y0059000000D01*
D10*
X0043000000Y0059000000D02*
X0068000000Y0059000000D01*
M02*
