G04 4-channel attenuator front silkscreen*
%FSLAX46Y46*%
%MOMM*%
%IPPOS*%
%LPD*%
%ADD10C,0.200000*%
%ADD11C,0.450000*%
D10*
X0002600000Y0036600000D02*
X0007400000Y0036600000D01*
D10*
X0007400000Y0036600000D02*
X0007400000Y0041400000D01*
D10*
X0007400000Y0041400000D02*
X0002600000Y0041400000D01*
D10*
X0002600000Y0041400000D02*
X0002600000Y0036600000D01*
D10*
X0012600000Y0036600000D02*
X0017400000Y0036600000D01*
D10*
X0017400000Y0036600000D02*
X0017400000Y0041400000D01*
D10*
X0017400000Y0041400000D02*
X0012600000Y0041400000D01*
D10*
X0012600000Y0041400000D02*
X0012600000Y0036600000D01*
D11*
X0002500000Y0031500000D03*
D11*
X0003150000Y0031500000D03*
D11*
X0003800000Y0031500000D03*
D11*
X0003150000Y0032150000D03*
D11*
X0003150000Y0032800000D03*
D11*
X0003150000Y0033450000D03*
D11*
X0002500000Y0034100000D03*
D11*
X0003150000Y0034100000D03*
D11*
X0003800000Y0034100000D03*
D11*
X0005100000Y0031500000D03*
D11*
X0006400000Y0031500000D03*
D11*
X0005100000Y0032150000D03*
D11*
X0005750000Y0032150000D03*
D11*
X0006400000Y0032150000D03*
D11*
X0005100000Y0032800000D03*
D11*
X0005750000Y0032800000D03*
D11*
X0006400000Y0032800000D03*
D11*
X0005100000Y0033450000D03*
D11*
X0005750000Y0033450000D03*
D11*
X0006400000Y0033450000D03*
D11*
X0005100000Y0034100000D03*
D11*
X0006400000Y0034100000D03*
D11*
X0014000000Y0031500000D03*
D11*
X0014650000Y0031500000D03*
D11*
X0015300000Y0031500000D03*
D11*
X0014000000Y0032150000D03*
D11*
X0014000000Y0032800000D03*
D11*
X0015300000Y0032800000D03*
D11*
X0014000000Y0033450000D03*
D11*
X0015300000Y0033450000D03*
D11*
X0014000000Y0034100000D03*
D11*
X0014650000Y0034100000D03*
D11*
X0015300000Y0034100000D03*
D10*
X0065600000Y0005600000D02*
X0070400000Y0005600000D01*
D10*
X0070400000Y0005600000D02*
X0070400000Y0010400000D01*
D10*
X0070400000Y0010400000D02*
X0065600000Y0010400000D01*
D10*
X0065600000Y0010400000D02*
X0065600000Y0005600000D01*
D10*
X0073600000Y0005600000D02*
X0078400000Y0005600000D01*
D10*
X0078400000Y0005600000D02*
X0078400000Y0010400000D01*
D10*
X0078400000Y0010400000D02*
X0073600000Y0010400000D01*
D10*
X0073600000Y0010400000D02*
X0073600000Y0005600000D01*
D10*
X0032000000Y0006400000D02*
X0039000000Y0006400000D01*
D10*
X0039000000Y0006400000D02*
X0039000000Y0009600000D01*
D10*
X0039000000Y0009600000D02*
X0032000000Y0009600000D01*
D10*
X0032000000Y0009600000D02*
X0032000000Y0006400000D01*
D10*
X0051400000Y0012000000D02*
X0054600000Y0012000000D01*
D10*
X0054600000Y0012000000D02*
X0054600000Y0019000000D01*
D10*
X0054600000Y0019000000D02*
X0051400000Y0019000000D01*
D10*
X0051400000Y0019000000D02*
X0051400000Y0012000000D01*
D11*
X0058000000Y0002500000D03*
D11*
X0058550000Y0002500000D03*
D11*
X0059100000Y0002500000D03*
D11*
X0058000000Y0003050000D03*
D11*
X0059100000Y0003050000D03*
D11*
X0058000000Y0003600000D03*
D11*
X0059100000Y0003600000D03*
D11*
X0058000000Y0004150000D03*
D11*
X0059100000Y0004150000D03*
D11*
X0058000000Y0004700000D03*
D11*
X0058550000Y0004700000D03*
D11*
X0059100000Y0004700000D03*
D11*
X0060200000Y0002500000D03*
D11*
X0061300000Y0002500000D03*
D11*
X0060200000Y0003050000D03*
D11*
X0061300000Y0003050000D03*
D11*
X0060200000Y0003600000D03*
D11*
X0061300000Y0003600000D03*
D11*
X0060200000Y0004150000D03*
D11*
X0061300000Y0004150000D03*
D11*
X0060200000Y0004700000D03*
D11*
X0060750000Y0004700000D03*
D11*
X0061300000Y0004700000D03*
D11*
X0062400000Y0002500000D03*
D11*
X0062950000Y0002500000D03*
D11*
X0063500000Y0002500000D03*
D11*
X0062950000Y0003050000D03*
D11*
X0062950000Y0003600000D03*
D11*
X0062950000Y0004150000D03*
D11*
X0062950000Y0004700000D03*
D11*
X0065150000Y0002500000D03*
D11*
X0064600000Y0003050000D03*
D11*
X0065150000Y0003050000D03*
D11*
X0065150000Y0003600000D03*
D11*
X0065150000Y0004150000D03*
D11*
X0064600000Y0004700000D03*
D11*
X0065150000Y0004700000D03*
D11*
X0065700000Y0004700000D03*
D11*
X0074500000Y0002500000D03*
D11*
X0075050000Y0002500000D03*
D11*
X0075600000Y0002500000D03*
D11*
X0074500000Y0003050000D03*
D11*
X0074500000Y0003600000D03*
D11*
X0075600000Y0003600000D03*
D11*
X0074500000Y0004150000D03*
D11*
X0075600000Y0004150000D03*
D11*
X0074500000Y0004700000D03*
D11*
X0075050000Y0004700000D03*
D11*
X0075600000Y0004700000D03*
D11*
X0034000000Y0003500000D03*
D11*
X0034500000Y0003500000D03*
D11*
X0034000000Y0004000000D03*
D11*
X0035000000Y0004000000D03*
D11*
X0034000000Y0004500000D03*
D11*
X0034500000Y0004500000D03*
D11*
X0034000000Y0005000000D03*
D11*
X0035000000Y0005000000D03*
D11*
X0034000000Y0005500000D03*
D11*
X0035000000Y0005500000D03*
D11*
X0036500000Y0003500000D03*
D11*
X0036000000Y0004000000D03*
D11*
X0036500000Y0004000000D03*
D11*
X0036500000Y0004500000D03*
D11*
X0036500000Y0005000000D03*
D11*
X0036000000Y0005500000D03*
D11*
X0036500000Y0005500000D03*
D11*
X0037000000Y0005500000D03*
D11*
X0055500000Y0013000000D03*
D11*
X0056000000Y0013000000D03*
D11*
X0055500000Y0013500000D03*
D11*
X0056500000Y0013500000D03*
D11*
X0055500000Y0014000000D03*
D11*
X0056000000Y0014000000D03*
D11*
X0055500000Y0014500000D03*
D11*
X0056500000Y0014500000D03*
D11*
X0055500000Y0015000000D03*
D11*
X0056500000Y0015000000D03*
D11*
X0057500000Y0013000000D03*
D11*
X0058000000Y0013000000D03*
D11*
X0058500000Y0013000000D03*
D11*
X0057500000Y0013500000D03*
D11*
X0057500000Y0014000000D03*
D11*
X0058000000Y0014000000D03*
D11*
X0058500000Y0014000000D03*
D11*
X0058500000Y0014500000D03*
D11*
X0057500000Y0015000000D03*
D11*
X0058000000Y0015000000D03*
D11*
X0058500000Y0015000000D03*
D10*
X0065600000Y0022600000D02*
X0070400000Y0022600000D01*
D10*
X0070400000Y0022600000D02*
X0070400000Y0027400000D01*
D10*
X0070400000Y0027400000D02*
X0065600000Y0027400000D01*
D10*
X0065600000Y0027400000D02*
X0065600000Y0022600000D01*
D10*
X0073600000Y0022600000D02*
X0078400000Y0022600000D01*
D10*
X0078400000Y0022600000D02*
X0078400000Y0027400000D01*
D10*
X0078400000Y0027400000D02*
X0073600000Y0027400000D01*
D10*
X0073600000Y0027400000D02*
X0073600000Y0022600000D01*
D10*
X0032000000Y0023400000D02*
X0039000000Y0023400000D01*
D10*
X0039000000Y0023400000D02*
X0039000000Y0026600000D01*
D10*
X0039000000Y0026600000D02*
X0032000000Y0026600000D01*
D10*
X0032000000Y0026600000D02*
X0032000000Y0023400000D01*
D10*
X0051400000Y0029000000D02*
X0054600000Y0029000000D01*
D10*
X0054600000Y0029000000D02*
X0054600000Y0036000000D01*
D10*
X0054600000Y0036000000D02*
X0051400000Y0036000000D01*
D10*
X0051400000Y0036000000D02*
X0051400000Y0029000000D01*
D11*
X0058000000Y0019500000D03*
D11*
X0058550000Y0019500000D03*
D11*
X0059100000Y0019500000D03*
D11*
X0058000000Y0020050000D03*
D11*
X0059100000Y0020050000D03*
D11*
X0058000000Y0020600000D03*
D11*
X0059100000Y0020600000D03*
D11*
X0058000000Y0021150000D03*
D11*
X0059100000Y0021150000D03*
D11*
X0058000000Y0021700000D03*
D11*
X0058550000Y0021700000D03*
D11*
X0059100000Y0021700000D03*
D11*
X0060200000Y0019500000D03*
D11*
X0061300000Y0019500000D03*
D11*
X0060200000Y0020050000D03*
D11*
X0061300000Y0020050000D03*
D11*
X0060200000Y0020600000D03*
D11*
X0061300000Y0020600000D03*
D11*
X0060200000Y0021150000D03*
D11*
X0061300000Y0021150000D03*
D11*
X0060200000Y0021700000D03*
D11*
X0060750000Y0021700000D03*
D11*
X0061300000Y0021700000D03*
D11*
X0062400000Y0019500000D03*
D11*
X0062950000Y0019500000D03*
D11*
X0063500000Y0019500000D03*
D11*
X0062950000Y0020050000D03*
D11*
X0062950000Y0020600000D03*
D11*
X0062950000Y0021150000D03*
D11*
X0062950000Y0021700000D03*
D11*
X0064600000Y0019500000D03*
D11*
X0065150000Y0019500000D03*
D11*
X0065700000Y0019500000D03*
D11*
X0065700000Y0020050000D03*
D11*
X0064600000Y0020600000D03*
D11*
X0065150000Y0020600000D03*
D11*
X0065700000Y0020600000D03*
D11*
X0064600000Y0021150000D03*
D11*
X0064600000Y0021700000D03*
D11*
X0065150000Y0021700000D03*
D11*
X0065700000Y0021700000D03*
D11*
X0074500000Y0019500000D03*
D11*
X0075050000Y0019500000D03*
D11*
X0075600000Y0019500000D03*
D11*
X0074500000Y0020050000D03*
D11*
X0074500000Y0020600000D03*
D11*
X0075600000Y0020600000D03*
D11*
X0074500000Y0021150000D03*
D11*
X0075600000Y0021150000D03*
D11*
X0074500000Y0021700000D03*
D11*
X0075050000Y0021700000D03*
D11*
X0075600000Y0021700000D03*
D11*
X0034000000Y0020500000D03*
D11*
X0034500000Y0020500000D03*
D11*
X0034000000Y0021000000D03*
D11*
X0035000000Y0021000000D03*
D11*
X0034000000Y0021500000D03*
D11*
X0034500000Y0021500000D03*
D11*
X0034000000Y0022000000D03*
D11*
X0035000000Y0022000000D03*
D11*
X0034000000Y0022500000D03*
D11*
X0035000000Y0022500000D03*
D11*
X0036000000Y0020500000D03*
D11*
X0036500000Y0020500000D03*
D11*
X0037000000Y0020500000D03*
D11*
X0037000000Y0021000000D03*
D11*
X0036000000Y0021500000D03*
D11*
X0036500000Y0021500000D03*
D11*
X0037000000Y0021500000D03*
D11*
X0036000000Y0022000000D03*
D11*
X0036000000Y0022500000D03*
D11*
X0036500000Y0022500000D03*
D11*
X0037000000Y0022500000D03*
D11*
X0055500000Y0030000000D03*
D11*
X0056000000Y0030000000D03*
D11*
X0055500000Y0030500000D03*
D11*
X0056500000Y0030500000D03*
D11*
X0055500000Y0031000000D03*
D11*
X0056000000Y0031000000D03*
D11*
X0055500000Y0031500000D03*
D11*
X0056500000Y0031500000D03*
D11*
X0055500000Y0032000000D03*
D11*
X0056500000Y0032000000D03*
D11*
X0057500000Y0030000000D03*
D11*
X0058000000Y0030000000D03*
D11*
X0058500000Y0030000000D03*
D11*
X0057500000Y0030500000D03*
D11*
X0057500000Y0031000000D03*
D11*
X0058000000Y0031000000D03*
D11*
X0058500000Y0031000000D03*
D11*
X0057500000Y0031500000D03*
D11*
X0058500000Y0031500000D03*
D11*
X0057500000Y0032000000D03*
D11*
X0058000000Y0032000000D03*
D11*
X0058500000Y0032000000D03*
D10*
X0065600000Y0039600000D02*
X0070400000Y0039600000D01*
D10*
X0070400000Y0039600000D02*
X0070400000Y0044400000D01*
D10*
X0070400000Y0044400000D02*
X0065600000Y0044400000D01*
D10*
X0065600000Y0044400000D02*
X0065600000Y0039600000D01*
D10*
X0073600000Y0039600000D02*
X0078400000Y0039600000D01*
D10*
X0078400000Y0039600000D02*
X0078400000Y0044400000D01*
D10*
X0078400000Y0044400000D02*
X0073600000Y0044400000D01*
D10*
X0073600000Y0044400000D02*
X0073600000Y0039600000D01*
D10*
X0032000000Y0040400000D02*
X0039000000Y0040400000D01*
D10*
X0039000000Y0040400000D02*
X0039000000Y0043600000D01*
D10*
X0039000000Y0043600000D02*
X0032000000Y0043600000D01*
D10*
X0032000000Y0043600000D02*
X0032000000Y0040400000D01*
D10*
X0051400000Y0046000000D02*
X0054600000Y0046000000D01*
D10*
X0054600000Y0046000000D02*
X0054600000Y0053000000D01*
D10*
X0054600000Y0053000000D02*
X0051400000Y0053000000D01*
D10*
X0051400000Y0053000000D02*
X0051400000Y0046000000D01*
D11*
X0058000000Y0036500000D03*
D11*
X0058550000Y0036500000D03*
D11*
X0059100000Y0036500000D03*
D11*
X0058000000Y0037050000D03*
D11*
X0059100000Y0037050000D03*
D11*
X0058000000Y0037600000D03*
D11*
X0059100000Y0037600000D03*
D11*
X0058000000Y0038150000D03*
D11*
X0059100000Y0038150000D03*
D11*
X0058000000Y0038700000D03*
D11*
X0058550000Y0038700000D03*
D11*
X0059100000Y0038700000D03*
D11*
X0060200000Y0036500000D03*
D11*
X0061300000Y0036500000D03*
D11*
X0060200000Y0037050000D03*
D11*
X0061300000Y0037050000D03*
D11*
X0060200000Y0037600000D03*
D11*
X0061300000Y0037600000D03*
D11*
X0060200000Y0038150000D03*
D11*
X0061300000Y0038150000D03*
D11*
X0060200000Y0038700000D03*
D11*
X0060750000Y0038700000D03*
D11*
X0061300000Y0038700000D03*
D11*
X0062400000Y0036500000D03*
D11*
X0062950000Y0036500000D03*
D11*
X0063500000Y0036500000D03*
D11*
X0062950000Y0037050000D03*
D11*
X0062950000Y0037600000D03*
D11*
X0062950000Y0038150000D03*
D11*
X0062950000Y0038700000D03*
D11*
X0064600000Y0036500000D03*
D11*
X0065150000Y0036500000D03*
D11*
X0065700000Y0036500000D03*
D11*
X0065700000Y0037050000D03*
D11*
X0064600000Y0037600000D03*
D11*
X0065150000Y0037600000D03*
D11*
X0065700000Y0037600000D03*
D11*
X0065700000Y0038150000D03*
D11*
X0064600000Y0038700000D03*
D11*
X0065150000Y0038700000D03*
D11*
X0065700000Y0038700000D03*
D11*
X0074500000Y0036500000D03*
D11*
X0075050000Y0036500000D03*
D11*
X0075600000Y0036500000D03*
D11*
X0074500000Y0037050000D03*
D11*
X0074500000Y0037600000D03*
D11*
X0075600000Y0037600000D03*
D11*
X0074500000Y0038150000D03*
D11*
X0075600000Y0038150000D03*
D11*
X0074500000Y0038700000D03*
D11*
X0075050000Y0038700000D03*
D11*
X0075600000Y0038700000D03*
D11*
X0034000000Y0037500000D03*
D11*
X0034500000Y0037500000D03*
D11*
X0034000000Y0038000000D03*
D11*
X0035000000Y0038000000D03*
D11*
X0034000000Y0038500000D03*
D11*
X0034500000Y0038500000D03*
D11*
X0034000000Y0039000000D03*
D11*
X0035000000Y0039000000D03*
D11*
X0034000000Y0039500000D03*
D11*
X0035000000Y0039500000D03*
D11*
X0036000000Y0037500000D03*
D11*
X0036500000Y0037500000D03*
D11*
X0037000000Y0037500000D03*
D11*
X0037000000Y0038000000D03*
D11*
X0036000000Y0038500000D03*
D11*
X0036500000Y0038500000D03*
D11*
X0037000000Y0038500000D03*
D11*
X0037000000Y0039000000D03*
D11*
X0036000000Y0039500000D03*
D11*
X0036500000Y0039500000D03*
D11*
X0037000000Y0039500000D03*
D11*
X0055500000Y0047000000D03*
D11*
X0056000000Y0047000000D03*
D11*
X0055500000Y0047500000D03*
D11*
X0056500000Y0047500000D03*
D11*
X0055500000Y0048000000D03*
D11*
X0056000000Y0048000000D03*
D11*
X0055500000Y0048500000D03*
D11*
X0056500000Y0048500000D03*
D11*
X0055500000Y0049000000D03*
D11*
X0056500000Y0049000000D03*
D11*
X0057500000Y0047000000D03*
D11*
X0058000000Y0047000000D03*
D11*
X0058500000Y0047000000D03*
D11*
X0058500000Y0047500000D03*
D11*
X0058000000Y0048000000D03*
D11*
X0058000000Y0048500000D03*
D11*
X0058000000Y0049000000D03*
D10*
X0065600000Y0056600000D02*
X0070400000Y0056600000D01*
D10*
X0070400000Y0056600000D02*
X0070400000Y0061400000D01*
D10*
X0070400000Y0061400000D02*
X0065600000Y0061400000D01*
D10*
X0065600000Y0061400000D02*
X0065600000Y0056600000D01*
D10*
X0073600000Y0056600000D02*
X0078400000Y0056600000D01*
D10*
X0078400000Y0056600000D02*
X0078400000Y0061400000D01*
D10*
X0078400000Y0061400000D02*
X0073600000Y0061400000D01*
D10*
X0073600000Y0061400000D02*
X0073600000Y0056600000D01*
D10*
X0032000000Y0057400000D02*
X0039000000Y0057400000D01*
D10*
X0039000000Y0057400000D02*
X0039000000Y0060600000D01*
D10*
X0039000000Y0060600000D02*
X0032000000Y0060600000D01*
D10*
X0032000000Y0060600000D02*
X0032000000Y0057400000D01*
D10*
X0051400000Y0063000000D02*
X0054600000Y0063000000D01*
D10*
X0054600000Y0063000000D02*
X0054600000Y0070000000D01*
D10*
X0054600000Y0070000000D02*
X0051400000Y0070000000D01*
D10*
X0051400000Y0070000000D02*
X0051400000Y0063000000D01*
D11*
X0058000000Y0053500000D03*
D11*
X0058550000Y0053500000D03*
D11*
X0059100000Y0053500000D03*
D11*
X0058000000Y0054050000D03*
D11*
X0059100000Y0054050000D03*
D11*
X0058000000Y0054600000D03*
D11*
X0059100000Y0054600000D03*
D11*
X0058000000Y0055150000D03*
D11*
X0059100000Y0055150000D03*
D11*
X0058000000Y0055700000D03*
D11*
X0058550000Y0055700000D03*
D11*
X0059100000Y0055700000D03*
D11*
X0060200000Y0053500000D03*
D11*
X0061300000Y0053500000D03*
D11*
X0060200000Y0054050000D03*
D11*
X0061300000Y0054050000D03*
D11*
X0060200000Y0054600000D03*
D11*
X0061300000Y0054600000D03*
D11*
X0060200000Y0055150000D03*
D11*
X0061300000Y0055150000D03*
D11*
X0060200000Y0055700000D03*
D11*
X0060750000Y0055700000D03*
D11*
X0061300000Y0055700000D03*
D11*
X0062400000Y0053500000D03*
D11*
X0062950000Y0053500000D03*
D11*
X0063500000Y0053500000D03*
D11*
X0062950000Y0054050000D03*
D11*
X0062950000Y0054600000D03*
D11*
X0062950000Y0055150000D03*
D11*
X0062950000Y0055700000D03*
D11*
X0064600000Y0053500000D03*
D11*
X0065700000Y0053500000D03*
D11*
X0064600000Y0054050000D03*
D11*
X0065700000Y0054050000D03*
D11*
X0064600000Y0054600000D03*
D11*
X0065150000Y0054600000D03*
D11*
X0065700000Y0054600000D03*
D11*
X0065700000Y0055150000D03*
D11*
X0065700000Y0055700000D03*
D11*
X0074500000Y0053500000D03*
D11*
X0075050000Y0053500000D03*
D11*
X0075600000Y0053500000D03*
D11*
X0074500000Y0054050000D03*
D11*
X0074500000Y0054600000D03*
D11*
X0075600000Y0054600000D03*
D11*
X0074500000Y0055150000D03*
D11*
X0075600000Y0055150000D03*
D11*
X0074500000Y0055700000D03*
D11*
X0075050000Y0055700000D03*
D11*
X0075600000Y0055700000D03*
D11*
X0034000000Y0054500000D03*
D11*
X0034500000Y0054500000D03*
D11*
X0034000000Y0055000000D03*
D11*
X0035000000Y0055000000D03*
D11*
X0034000000Y0055500000D03*
D11*
X0034500000Y0055500000D03*
D11*
X0034000000Y0056000000D03*
D11*
X0035000000Y0056000000D03*
D11*
X0034000000Y0056500000D03*
D11*
X0035000000Y0056500000D03*
D11*
X0036000000Y0054500000D03*
D11*
X0037000000Y0054500000D03*
D11*
X0036000000Y0055000000D03*
D11*
X0037000000Y0055000000D03*
D11*
X0036000000Y0055500000D03*
D11*
X0036500000Y0055500000D03*
D11*
X0037000000Y0055500000D03*
D11*
X0037000000Y0056000000D03*
D11*
X0037000000Y0056500000D03*
D11*
X0055500000Y0064000000D03*
D11*
X0056000000Y0064000000D03*
D11*
X0055500000Y0064500000D03*
D11*
X0056500000Y0064500000D03*
D11*
X0055500000Y0065000000D03*
D11*
X0056000000Y0065000000D03*
D11*
X0055500000Y0065500000D03*
D11*
X0056500000Y0065500000D03*
D11*
X0055500000Y0066000000D03*
D11*
X0056500000Y0066000000D03*
D11*
X0057500000Y0064000000D03*
D11*
X0058000000Y0064000000D03*
D11*
X0058500000Y0064000000D03*
D11*
X0057500000Y0064500000D03*
D11*
X0058500000Y0064500000D03*
D11*
X0057500000Y0065000000D03*
D11*
X0058000000Y0065000000D03*
D11*
X0058500000Y0065000000D03*
D11*
X0057500000Y0065500000D03*
D11*
X0058500000Y0065500000D03*
D11*
X0057500000Y0066000000D03*
D11*
X0058000000Y0066000000D03*
D11*
X0058500000Y0066000000D03*
D11*
X0010000000Y0001500000D03*
D11*
X0011100000Y0001500000D03*
D11*
X0010000000Y0002050000D03*
D11*
X0011100000Y0002050000D03*
D11*
X0010000000Y0002600000D03*
D11*
X0010550000Y0002600000D03*
D11*
X0011100000Y0002600000D03*
D11*
X0011100000Y0003150000D03*
D11*
X0011100000Y0003700000D03*
D11*
X0012200000Y0001500000D03*
D11*
X0012750000Y0001500000D03*
D11*
X0013300000Y0001500000D03*
D11*
X0012200000Y0002050000D03*
D11*
X0012200000Y0002600000D03*
D11*
X0012200000Y0003150000D03*
D11*
X0012200000Y0003700000D03*
D11*
X0012750000Y0003700000D03*
D11*
X0013300000Y0003700000D03*
D11*
X0014400000Y0001500000D03*
D11*
X0015500000Y0001500000D03*
D11*
X0014400000Y0002050000D03*
D11*
X0015500000Y0002050000D03*
D11*
X0014400000Y0002600000D03*
D11*
X0014950000Y0002600000D03*
D11*
X0015500000Y0002600000D03*
D11*
X0014400000Y0003150000D03*
D11*
X0015500000Y0003150000D03*
D11*
X0014400000Y0003700000D03*
D11*
X0015500000Y0003700000D03*
D11*
X0019350000Y0001500000D03*
D11*
X0018800000Y0002050000D03*
D11*
X0019350000Y0002050000D03*
D11*
X0019350000Y0002600000D03*
D11*
X0019350000Y0003150000D03*
D11*
X0018800000Y0003700000D03*
D11*
X0019350000Y0003700000D03*
D11*
X0019900000Y0003700000D03*
D11*
X0021000000Y0001500000D03*
D11*
X0021550000Y0001500000D03*
D11*
X0022100000Y0001500000D03*
D11*
X0021000000Y0002050000D03*
D11*
X0022100000Y0002050000D03*
D11*
X0021000000Y0002600000D03*
D11*
X0022100000Y0002600000D03*
D11*
X0021000000Y0003150000D03*
D11*
X0022100000Y0003150000D03*
D11*
X0021000000Y0003700000D03*
D11*
X0021550000Y0003700000D03*
D11*
X0022100000Y0003700000D03*
D11*
X0023200000Y0001500000D03*
D11*
X0023750000Y0001500000D03*
D11*
X0024300000Y0001500000D03*
D11*
X0023200000Y0002050000D03*
D11*
X0024300000Y0002050000D03*
D11*
X0023200000Y0002600000D03*
D11*
X0024300000Y0002600000D03*
D11*
X0023200000Y0003150000D03*
D11*
X0024300000Y0003150000D03*
D11*
X0023200000Y0003700000D03*
D11*
X0023750000Y0003700000D03*
D11*
X0024300000Y0003700000D03*
D11*
X0025950000Y0001500000D03*
D11*
X0025400000Y0002050000D03*
D11*
X0025950000Y0002050000D03*
D11*
X0025950000Y0002600000D03*
D11*
X0025950000Y0003150000D03*
D11*
X0025400000Y0003700000D03*
D11*
X0025950000Y0003700000D03*
D11*
X0026500000Y0003700000D03*
D11*
X0028150000Y0002050000D03*
D11*
X0028150000Y0003150000D03*
D11*
X0030350000Y0001500000D03*
D11*
X0029800000Y0002050000D03*
D11*
X0030350000Y0002050000D03*
D11*
X0030350000Y0002600000D03*
D11*
X0030350000Y0003150000D03*
D11*
X0029800000Y0003700000D03*
D11*
X0030350000Y0003700000D03*
D11*
X0030900000Y0003700000D03*
D11*
X0034750000Y0001500000D03*
D11*
X0034200000Y0002050000D03*
D11*
X0035300000Y0002050000D03*
D11*
X0034200000Y0002600000D03*
D11*
X0034750000Y0002600000D03*
D11*
X0035300000Y0002600000D03*
D11*
X0034200000Y0003150000D03*
D11*
X0035300000Y0003150000D03*
D11*
X0034200000Y0003700000D03*
D11*
X0035300000Y0003700000D03*
D11*
X0036400000Y0001500000D03*
D11*
X0036950000Y0001500000D03*
D11*
X0037500000Y0001500000D03*
D11*
X0036950000Y0002050000D03*
D11*
X0036950000Y0002600000D03*
D11*
X0036950000Y0003150000D03*
D11*
X0036950000Y0003700000D03*
D11*
X0038600000Y0001500000D03*
D11*
X0039150000Y0001500000D03*
D11*
X0039700000Y0001500000D03*
D11*
X0039150000Y0002050000D03*
D11*
X0039150000Y0002600000D03*
D11*
X0039150000Y0003150000D03*
D11*
X0039150000Y0003700000D03*
D11*
X0040800000Y0001500000D03*
D11*
X0041350000Y0001500000D03*
D11*
X0041900000Y0001500000D03*
D11*
X0040800000Y0002050000D03*
D11*
X0040800000Y0002600000D03*
D11*
X0041350000Y0002600000D03*
D11*
X0040800000Y0003150000D03*
D11*
X0040800000Y0003700000D03*
D11*
X0041350000Y0003700000D03*
D11*
X0041900000Y0003700000D03*
D11*
X0043000000Y0001500000D03*
D11*
X0044100000Y0001500000D03*
D11*
X0043000000Y0002050000D03*
D11*
X0043550000Y0002050000D03*
D11*
X0044100000Y0002050000D03*
D11*
X0043000000Y0002600000D03*
D11*
X0043550000Y0002600000D03*
D11*
X0044100000Y0002600000D03*
D11*
X0043000000Y0003150000D03*
D11*
X0043550000Y0003150000D03*
D11*
X0044100000Y0003150000D03*
D11*
X0043000000Y0003700000D03*
D11*
X0044100000Y0003700000D03*
D11*
X0045200000Y0001500000D03*
D11*
X0046300000Y0001500000D03*
D11*
X0045200000Y0002050000D03*
D11*
X0046300000Y0002050000D03*
D11*
X0045200000Y0002600000D03*
D11*
X0046300000Y0002600000D03*
D11*
X0045200000Y0003150000D03*
D11*
X0046300000Y0003150000D03*
D11*
X0045200000Y0003700000D03*
D11*
X0045750000Y0003700000D03*
D11*
X0046300000Y0003700000D03*
D11*
X0047950000Y0001500000D03*
D11*
X0047400000Y0002050000D03*
D11*
X0048500000Y0002050000D03*
D11*
X0047400000Y0002600000D03*
D11*
X0047950000Y0002600000D03*
D11*
X0048500000Y0002600000D03*
D11*
X0047400000Y0003150000D03*
D11*
X0048500000Y0003150000D03*
D11*
X0047400000Y0003700000D03*
D11*
X0048500000Y0003700000D03*
D11*
X0049600000Y0001500000D03*
D11*
X0050150000Y0001500000D03*
D11*
X0050700000Y0001500000D03*
D11*
X0050150000Y0002050000D03*
D11*
X0050150000Y0002600000D03*
D11*
X0050150000Y0003150000D03*
D11*
X0050150000Y0003700000D03*
D11*
X0051800000Y0001500000D03*
D11*
X0052350000Y0001500000D03*
D11*
X0052900000Y0001500000D03*
D11*
X0051800000Y0002050000D03*
D11*
X0052900000Y0002050000D03*
D11*
X0051800000Y0002600000D03*
D11*
X0052900000Y0002600000D03*
D11*
X0051800000Y0003150000D03*
D11*
X0052900000Y0003150000D03*
D11*
X0051800000Y0003700000D03*
D11*
X0052350000Y0003700000D03*
D11*
X0052900000Y0003700000D03*
D11*
X0054000000Y0001500000D03*
D11*
X0054550000Y0001500000D03*
D11*
X0054000000Y0002050000D03*
D11*
X0055100000Y0002050000D03*
D11*
X0054000000Y0002600000D03*
D11*
X0054550000Y0002600000D03*
D11*
X0054000000Y0003150000D03*
D11*
X0055100000Y0003150000D03*
D11*
X0054000000Y0003700000D03*
D11*
X0055100000Y0003700000D03*
M02*
