M48
; 4-channel attenuator plated through holes
FMAT,2
METRIC,TZ
T1C1.600
T2C0.900
%
G90
G05
T1
X5.000Y39.000
X68.000Y8.000
X68.000Y25.000
X68.000Y42.000
X68.000Y59.000
X15.000Y39.000
X76.000Y8.000
X76.000Y25.000
X76.000Y42.000
X76.000Y59.000
T2
X28.000Y8.000
X43.000Y8.000
X28.000Y25.000
X43.000Y25.000
X28.000Y42.000
X43.000Y42.000
X28.000Y59.000
X43.000Y59.000
X53.000Y8.000
X53.000Y23.000
X53.000Y25.000
X53.000Y40.000
X53.000Y42.000
X53.000Y57.000
X53.000Y59.000
X53.000Y74.000
T0
M30
